{"title":"Chantabbai (1986) DvdRip Telugu Movie - teluguppls","uid":6522793,"size":736012803,"categoryP":"video","categoryS":"movies","magnet":"?xt=urn:btih:2a81eff33de8201645ff10b120d5ae6f87afc7ec&amp;dn=Chantabbai+%281986%29+DvdRip+Telugu+Movie+-+teluguppls&amp;tr=udp%3A%2F%2Ftracker.openbittorrent.com%3A80&amp;tr=udp%3A%2F%2Fopen.demonii.com%3A1337&amp;tr=udp%3A%2F%2Ftracker.coppersurfer.tk%3A6969&amp;tr=udp%3A%2F%2Fexodus.desync.com%3A6969","seeders":0,"leechers":1,"uploader":"n1212","files":2,"time":1310051356,"description":"Chantabbai (1986) DvdRip Telugu Movie - teluguppls\n\n\n\nGeneral\n\nFormat                           : MPEG-4\nFile size                        : 702 MiB\nDuration                         : 2h 13mn\nOverall bit rate                 : 734 Kbps\n\n\nVideo\n\nFormat                           : AVC\nFormat/Info                      : Advanced Video Codec\nFormat profile                   : &lt;a class=&quot;__cf_email__&quot; href=&quot;/cdn-cgi/l/email-protection&quot; data-cfemail=&quot;256d4c424d6569160b15&quot;&gt;[email&amp;#160;protected]&lt;/a&gt;&lt;script cf-hash='f9e31' type=&quot;text/javascript&quot;&gt;\n/* &lt;![CDATA[ */!function(){try{var t=&quot;currentScript&quot;in document?document.currentScript:function(){for(var t=document.getElementsByTagName(&quot;script&quot;),e=t.length;e--;)if(t[e].getAttribute(&quot;cf-hash&quot;))return t[e]}();if(t&amp;&amp;t.previousSibling){var e,r,n,i,c=t.previousSibling,a=c.getAttribute(&quot;data-cfemail&quot;);if(a){for(e=&quot;&quot;,r=parseInt(a.substr(0,2),16),n=2;a.length-n;n+=2)i=parseInt(a.substr(n,2),16)^r,e+=String.fromCharCode(i);e=document.createTextNode(e),c.parentNode.replaceChild(e,c)}}}catch(u){}}();/* ]]&gt; */&lt;/script&gt;\nFormat settings, CABAC           : Yes\nFormat settings, ReFrames        : 3 frames\nCodec ID                         : avc1\nCodec ID/Info                    : Advanced Video Coding\nDuration                         : 2h 13mn\nBit rate mode                    : Variable\nBit rate                         : 666 Kbps\nMaximum bit rate                 : 3 019 Kbps\nWidth                            : 608 pixels\nHeight                           : 448 pixels\nDisplay aspect ratio             : 4:3\nFrame rate mode                  : Constant\nFrame rate                       : 29.970 fps\nColor space                      : YUV\nChroma subsampling               : 4:2:0\nBit depth                        : 8 bits\nScan type                        : Progressive\nBits/(Pixel*Frame)               : 0.082\nStream size                      : 637 MiB (91%)\n\n\nAudio\n\nFormat                           : AAC\nFormat/Info                      : Advanced Audio Codec\nFormat profile                   : LC\nCodec ID                         : 40\nDuration                         : 2h 13mn\nBit rate mode                    : Variable\nBit rate                         : 64.0 Kbps\nMaximum bit rate                 : 83.8 Kbps\nChannel(s)                       : 2 channels\nChannel positions                : Front: L R\nSampling rate                    : 48.0 KHz\nCompression mode                 : Lossy\nStream size                      : 61.2 MiB (9%)\n\n\nPLEASE SEEEEEEEEEEEDDDDDDDDDDDDDDD.....................\n\nPLEASE COMMENT..................\n\n","torrent":{"xt":"urn:btih:2a81eff33de8201645ff10b120d5ae6f87afc7ec","amp;dn":"Chantabbai+%281986%29+DvdRip+Telugu+Movie+-+teluguppls","amp;tr":["udp%3A%2F%2Ftracker.openbittorrent.com%3A80","udp%3A%2F%2Fopen.demonii.com%3A1337","udp%3A%2F%2Ftracker.coppersurfer.tk%3A6969","udp%3A%2F%2Fexodus.desync.com%3A6969"],"infoHash":"2a81eff33de8201645ff10b120d5ae6f87afc7ec","infoHashBuffer":{"type":"Buffer","data":[42,129,239,243,61,232,32,22,69,255,16,177,32,213,174,111,135,175,199,236]},"announce":[],"urlList":[]}}